<mxfile host="app.diagrams.net" modified="2023-07-25T13:45:21.762Z" agent="Mozilla/5.0 (Windows NT 10.0; Win64; x64) AppleWebKit/537.36 (KHTML, like Gecko) Chrome/114.0.0.0 Safari/537.36" etag="CwvyY2O4Qzc-in_N8mbp" version="21.6.5" type="device">
  <diagram name="Página-1" id="zhcftWEyxolq22y_nq5G">
    <mxGraphModel dx="1050" dy="1750" grid="1" gridSize="10" guides="1" tooltips="1" connect="1" arrows="1" fold="1" page="1" pageScale="1" pageWidth="827" pageHeight="1169" math="0" shadow="0">
      <root>
        <mxCell id="0" />
        <mxCell id="1" parent="0" />
        <mxCell id="UckrkC8vfXf4Q-wnlmAE-29" style="edgeStyle=orthogonalEdgeStyle;rounded=0;orthogonalLoop=1;jettySize=auto;html=1;entryX=0.5;entryY=0;entryDx=0;entryDy=0;endArrow=none;endFill=0;" parent="1" source="UckrkC8vfXf4Q-wnlmAE-1" target="UckrkC8vfXf4Q-wnlmAE-28" edge="1">
          <mxGeometry relative="1" as="geometry" />
        </mxCell>
        <mxCell id="UckrkC8vfXf4Q-wnlmAE-1" value="Clínica" style="rounded=0;whiteSpace=wrap;html=1;" parent="1" vertex="1">
          <mxGeometry x="120" y="-65" width="120" height="60" as="geometry" />
        </mxCell>
        <mxCell id="UckrkC8vfXf4Q-wnlmAE-13" style="edgeStyle=orthogonalEdgeStyle;rounded=0;orthogonalLoop=1;jettySize=auto;html=1;entryX=1;entryY=0.5;entryDx=0;entryDy=0;endArrow=none;endFill=0;" parent="1" source="WUo46Q60evC5Xvqe0-4t-3" target="UckrkC8vfXf4Q-wnlmAE-10" edge="1">
          <mxGeometry relative="1" as="geometry" />
        </mxCell>
        <mxCell id="UckrkC8vfXf4Q-wnlmAE-18" style="edgeStyle=orthogonalEdgeStyle;rounded=0;orthogonalLoop=1;jettySize=auto;html=1;entryX=0.5;entryY=1;entryDx=0;entryDy=0;endArrow=none;endFill=0;" parent="1" source="UckrkC8vfXf4Q-wnlmAE-2" target="UckrkC8vfXf4Q-wnlmAE-5" edge="1">
          <mxGeometry relative="1" as="geometry">
            <Array as="points">
              <mxPoint x="785" y="140" />
              <mxPoint x="890" y="140" />
              <mxPoint x="890" y="100" />
            </Array>
          </mxGeometry>
        </mxCell>
        <mxCell id="WUo46Q60evC5Xvqe0-4t-8" style="edgeStyle=orthogonalEdgeStyle;rounded=0;orthogonalLoop=1;jettySize=auto;html=1;entryX=0;entryY=0.5;entryDx=0;entryDy=0;endArrow=none;endFill=0;" edge="1" parent="1" source="UckrkC8vfXf4Q-wnlmAE-2" target="WUo46Q60evC5Xvqe0-4t-7">
          <mxGeometry relative="1" as="geometry" />
        </mxCell>
        <mxCell id="UckrkC8vfXf4Q-wnlmAE-2" value="Pets" style="rounded=0;whiteSpace=wrap;html=1;" parent="1" vertex="1">
          <mxGeometry x="725.01" y="180" width="120" height="60" as="geometry" />
        </mxCell>
        <mxCell id="UckrkC8vfXf4Q-wnlmAE-9" style="edgeStyle=orthogonalEdgeStyle;rounded=0;orthogonalLoop=1;jettySize=auto;html=1;entryX=0.5;entryY=0;entryDx=0;entryDy=0;endArrow=none;endFill=0;" parent="1" source="UckrkC8vfXf4Q-wnlmAE-3" target="UckrkC8vfXf4Q-wnlmAE-1" edge="1">
          <mxGeometry relative="1" as="geometry" />
        </mxCell>
        <mxCell id="UckrkC8vfXf4Q-wnlmAE-3" value="Endereço" style="ellipse;whiteSpace=wrap;html=1;" parent="1" vertex="1">
          <mxGeometry x="140" y="-130" width="80" height="30" as="geometry" />
        </mxCell>
        <mxCell id="UckrkC8vfXf4Q-wnlmAE-20" style="edgeStyle=orthogonalEdgeStyle;rounded=0;orthogonalLoop=1;jettySize=auto;html=1;endArrow=none;endFill=0;exitX=0.5;exitY=1;exitDx=0;exitDy=0;" parent="1" source="UckrkC8vfXf4Q-wnlmAE-4" edge="1">
          <mxGeometry relative="1" as="geometry">
            <mxPoint x="785" y="140" as="targetPoint" />
            <mxPoint x="690" y="120" as="sourcePoint" />
            <Array as="points">
              <mxPoint x="695.01" y="140" />
            </Array>
          </mxGeometry>
        </mxCell>
        <mxCell id="UckrkC8vfXf4Q-wnlmAE-4" value="Nome" style="ellipse;whiteSpace=wrap;html=1;" parent="1" vertex="1">
          <mxGeometry x="670" y="70" width="50" height="30" as="geometry" />
        </mxCell>
        <mxCell id="UckrkC8vfXf4Q-wnlmAE-5" value="Data de nascimento" style="ellipse;whiteSpace=wrap;html=1;" parent="1" vertex="1">
          <mxGeometry x="827" y="70" width="120" height="30" as="geometry" />
        </mxCell>
        <mxCell id="UckrkC8vfXf4Q-wnlmAE-21" style="edgeStyle=orthogonalEdgeStyle;rounded=0;orthogonalLoop=1;jettySize=auto;html=1;endArrow=none;endFill=0;" parent="1" source="UckrkC8vfXf4Q-wnlmAE-22" edge="1">
          <mxGeometry relative="1" as="geometry">
            <mxPoint x="785.01" y="340" as="targetPoint" />
          </mxGeometry>
        </mxCell>
        <mxCell id="UckrkC8vfXf4Q-wnlmAE-8" value="Donos" style="rounded=0;whiteSpace=wrap;html=1;" parent="1" vertex="1">
          <mxGeometry x="725.01" y="420" width="120" height="60" as="geometry" />
        </mxCell>
        <mxCell id="UckrkC8vfXf4Q-wnlmAE-10" value="atende" style="rhombus;whiteSpace=wrap;html=1;" parent="1" vertex="1">
          <mxGeometry x="300" y="170" width="80" height="80" as="geometry" />
        </mxCell>
        <mxCell id="UckrkC8vfXf4Q-wnlmAE-14" value="1" style="text;html=1;align=center;verticalAlign=middle;resizable=0;points=[];autosize=1;strokeColor=none;fillColor=none;" parent="1" vertex="1">
          <mxGeometry x="695.01" y="180" width="30" height="30" as="geometry" />
        </mxCell>
        <mxCell id="UckrkC8vfXf4Q-wnlmAE-23" value="" style="edgeStyle=orthogonalEdgeStyle;rounded=0;orthogonalLoop=1;jettySize=auto;html=1;endArrow=none;endFill=0;" parent="1" source="UckrkC8vfXf4Q-wnlmAE-8" target="UckrkC8vfXf4Q-wnlmAE-22" edge="1">
          <mxGeometry relative="1" as="geometry">
            <mxPoint x="785.01" y="340" as="targetPoint" />
            <mxPoint x="785.01" y="420" as="sourcePoint" />
          </mxGeometry>
        </mxCell>
        <mxCell id="UckrkC8vfXf4Q-wnlmAE-24" style="edgeStyle=orthogonalEdgeStyle;rounded=0;orthogonalLoop=1;jettySize=auto;html=1;entryX=0.5;entryY=1;entryDx=0;entryDy=0;endArrow=none;endFill=0;" parent="1" source="UckrkC8vfXf4Q-wnlmAE-22" target="UckrkC8vfXf4Q-wnlmAE-2" edge="1">
          <mxGeometry relative="1" as="geometry" />
        </mxCell>
        <mxCell id="UckrkC8vfXf4Q-wnlmAE-22" value="possui" style="rhombus;whiteSpace=wrap;html=1;" parent="1" vertex="1">
          <mxGeometry x="745.01" y="290" width="80" height="80" as="geometry" />
        </mxCell>
        <mxCell id="UckrkC8vfXf4Q-wnlmAE-25" value="1" style="text;html=1;align=center;verticalAlign=middle;resizable=0;points=[];autosize=1;strokeColor=none;fillColor=none;" parent="1" vertex="1">
          <mxGeometry x="785.01" y="390" width="30" height="30" as="geometry" />
        </mxCell>
        <mxCell id="UckrkC8vfXf4Q-wnlmAE-26" value="N" style="text;html=1;align=center;verticalAlign=middle;resizable=0;points=[];autosize=1;strokeColor=none;fillColor=none;" parent="1" vertex="1">
          <mxGeometry x="785.01" y="240" width="30" height="30" as="geometry" />
        </mxCell>
        <mxCell id="UckrkC8vfXf4Q-wnlmAE-31" style="edgeStyle=orthogonalEdgeStyle;rounded=0;orthogonalLoop=1;jettySize=auto;html=1;entryX=0.5;entryY=0;entryDx=0;entryDy=0;endArrow=none;endFill=0;" parent="1" source="UckrkC8vfXf4Q-wnlmAE-28" target="UckrkC8vfXf4Q-wnlmAE-30" edge="1">
          <mxGeometry relative="1" as="geometry" />
        </mxCell>
        <mxCell id="UckrkC8vfXf4Q-wnlmAE-28" value="possui" style="rhombus;whiteSpace=wrap;html=1;" parent="1" vertex="1">
          <mxGeometry x="140" y="50" width="80" height="80" as="geometry" />
        </mxCell>
        <mxCell id="UckrkC8vfXf4Q-wnlmAE-33" style="edgeStyle=orthogonalEdgeStyle;rounded=0;orthogonalLoop=1;jettySize=auto;html=1;entryX=0;entryY=0.5;entryDx=0;entryDy=0;endArrow=none;endFill=0;" parent="1" source="UckrkC8vfXf4Q-wnlmAE-30" target="UckrkC8vfXf4Q-wnlmAE-10" edge="1">
          <mxGeometry relative="1" as="geometry" />
        </mxCell>
        <mxCell id="UckrkC8vfXf4Q-wnlmAE-30" value="Veterinarios" style="rounded=0;whiteSpace=wrap;html=1;" parent="1" vertex="1">
          <mxGeometry x="120" y="180" width="120" height="60" as="geometry" />
        </mxCell>
        <mxCell id="UckrkC8vfXf4Q-wnlmAE-32" value="N" style="text;html=1;align=center;verticalAlign=middle;resizable=0;points=[];autosize=1;strokeColor=none;fillColor=none;" parent="1" vertex="1">
          <mxGeometry x="155" y="150" width="30" height="30" as="geometry" />
        </mxCell>
        <mxCell id="UckrkC8vfXf4Q-wnlmAE-34" value="1" style="text;html=1;align=center;verticalAlign=middle;resizable=0;points=[];autosize=1;strokeColor=none;fillColor=none;" parent="1" vertex="1">
          <mxGeometry x="240" y="180" width="30" height="30" as="geometry" />
        </mxCell>
        <mxCell id="WUo46Q60evC5Xvqe0-4t-1" style="edgeStyle=orthogonalEdgeStyle;rounded=0;orthogonalLoop=1;jettySize=auto;html=1;exitX=0.5;exitY=1;exitDx=0;exitDy=0;" edge="1" parent="1" source="UckrkC8vfXf4Q-wnlmAE-5" target="UckrkC8vfXf4Q-wnlmAE-5">
          <mxGeometry relative="1" as="geometry" />
        </mxCell>
        <mxCell id="WUo46Q60evC5Xvqe0-4t-2" value="1" style="text;html=1;align=center;verticalAlign=middle;resizable=0;points=[];autosize=1;strokeColor=none;fillColor=none;" vertex="1" parent="1">
          <mxGeometry x="150" y="-5" width="30" height="30" as="geometry" />
        </mxCell>
        <mxCell id="WUo46Q60evC5Xvqe0-4t-5" value="" style="edgeStyle=orthogonalEdgeStyle;rounded=0;orthogonalLoop=1;jettySize=auto;html=1;entryX=1;entryY=0.5;entryDx=0;entryDy=0;endArrow=none;endFill=0;" edge="1" parent="1" source="UckrkC8vfXf4Q-wnlmAE-2" target="WUo46Q60evC5Xvqe0-4t-4">
          <mxGeometry relative="1" as="geometry">
            <mxPoint x="775" y="210" as="sourcePoint" />
            <mxPoint x="240" y="210" as="targetPoint" />
          </mxGeometry>
        </mxCell>
        <mxCell id="WUo46Q60evC5Xvqe0-4t-4" value="possui" style="rhombus;whiteSpace=wrap;html=1;" vertex="1" parent="1">
          <mxGeometry x="590" y="170" width="80" height="80" as="geometry" />
        </mxCell>
        <mxCell id="WUo46Q60evC5Xvqe0-4t-6" value="" style="edgeStyle=orthogonalEdgeStyle;rounded=0;orthogonalLoop=1;jettySize=auto;html=1;entryX=1;entryY=0.5;entryDx=0;entryDy=0;endArrow=none;endFill=0;" edge="1" parent="1" source="WUo46Q60evC5Xvqe0-4t-4" target="WUo46Q60evC5Xvqe0-4t-3">
          <mxGeometry relative="1" as="geometry">
            <mxPoint x="690" y="210" as="sourcePoint" />
            <mxPoint x="300" y="210" as="targetPoint" />
          </mxGeometry>
        </mxCell>
        <mxCell id="WUo46Q60evC5Xvqe0-4t-3" value="Atendimento" style="rounded=0;whiteSpace=wrap;html=1;" vertex="1" parent="1">
          <mxGeometry x="420" y="180" width="120" height="60" as="geometry" />
        </mxCell>
        <mxCell id="WUo46Q60evC5Xvqe0-4t-9" style="edgeStyle=orthogonalEdgeStyle;rounded=0;orthogonalLoop=1;jettySize=auto;html=1;endArrow=none;endFill=0;" edge="1" parent="1" source="WUo46Q60evC5Xvqe0-4t-7">
          <mxGeometry relative="1" as="geometry">
            <mxPoint x="1090" y="170" as="targetPoint" />
          </mxGeometry>
        </mxCell>
        <mxCell id="WUo46Q60evC5Xvqe0-4t-10" style="edgeStyle=orthogonalEdgeStyle;rounded=0;orthogonalLoop=1;jettySize=auto;html=1;endArrow=none;endFill=0;" edge="1" parent="1" source="WUo46Q60evC5Xvqe0-4t-7">
          <mxGeometry relative="1" as="geometry">
            <mxPoint x="1090" y="250" as="targetPoint" />
          </mxGeometry>
        </mxCell>
        <mxCell id="WUo46Q60evC5Xvqe0-4t-7" value="possui" style="rhombus;whiteSpace=wrap;html=1;" vertex="1" parent="1">
          <mxGeometry x="910" y="170" width="80" height="80" as="geometry" />
        </mxCell>
        <mxCell id="WUo46Q60evC5Xvqe0-4t-11" value="TipoPet" style="rounded=0;whiteSpace=wrap;html=1;" vertex="1" parent="1">
          <mxGeometry x="1090" y="140" width="120" height="60" as="geometry" />
        </mxCell>
        <mxCell id="WUo46Q60evC5Xvqe0-4t-12" value="RaçaPet" style="rounded=0;whiteSpace=wrap;html=1;" vertex="1" parent="1">
          <mxGeometry x="1090" y="225" width="120" height="60" as="geometry" />
        </mxCell>
        <mxCell id="WUo46Q60evC5Xvqe0-4t-16" value="N" style="text;html=1;align=center;verticalAlign=middle;resizable=0;points=[];autosize=1;strokeColor=none;fillColor=none;" vertex="1" parent="1">
          <mxGeometry x="390" y="180" width="30" height="30" as="geometry" />
        </mxCell>
        <mxCell id="WUo46Q60evC5Xvqe0-4t-17" value="N" style="text;html=1;align=center;verticalAlign=middle;resizable=0;points=[];autosize=1;strokeColor=none;fillColor=none;" vertex="1" parent="1">
          <mxGeometry x="540" y="180" width="30" height="30" as="geometry" />
        </mxCell>
        <mxCell id="WUo46Q60evC5Xvqe0-4t-18" value="1" style="text;html=1;align=center;verticalAlign=middle;resizable=0;points=[];autosize=1;strokeColor=none;fillColor=none;" vertex="1" parent="1">
          <mxGeometry x="1060" y="220" width="30" height="30" as="geometry" />
        </mxCell>
        <mxCell id="WUo46Q60evC5Xvqe0-4t-19" value="N" style="text;html=1;align=center;verticalAlign=middle;resizable=0;points=[];autosize=1;strokeColor=none;fillColor=none;" vertex="1" parent="1">
          <mxGeometry x="845.01" y="180" width="30" height="30" as="geometry" />
        </mxCell>
        <mxCell id="WUo46Q60evC5Xvqe0-4t-20" value="1" style="text;html=1;align=center;verticalAlign=middle;resizable=0;points=[];autosize=1;strokeColor=none;fillColor=none;" vertex="1" parent="1">
          <mxGeometry x="1060" y="140" width="30" height="30" as="geometry" />
        </mxCell>
      </root>
    </mxGraphModel>
  </diagram>
</mxfile>
